<svg width="24" height="24" viewBox="0 0 24 24" fill="none" xmlns="http://www.w3.org/2000/svg">
<path fill-rule="evenodd" clip-rule="evenodd" d="M23.5379 11.609C20.5173 7.45251 16.6539 5.35083 12 5.35083C7.34598 5.35083 3.48266 7.45251 0.462014 11.609C0.29261 11.8421 0.29261 12.1578 0.462014 12.3909C3.48266 16.5473 7.34598 18.649 12 18.649C16.6539 18.649 20.5173 16.5473 23.5379 12.3909C23.7073 12.1578 23.7073 11.8421 23.5379 11.609ZM2.28941 11.4242C4.93387 8.25011 8.15757 6.68083 12 6.68083L12.3699 6.68573L12.7359 6.70044C16.3773 6.89653 19.4416 8.56445 21.9646 11.7364L22.169 11.9999L21.9646 12.2634L21.7105 12.5756C19.0661 15.7497 15.8424 17.319 12 17.319L11.63 17.3141L11.264 17.2994C7.62264 17.1033 4.55833 15.4354 2.03531 12.2634L1.82996 11.9999L2.03531 11.7364L2.28941 11.4242ZM12 7.66992C14.3914 7.66992 16.33 9.60852 16.33 11.9999C16.33 14.3913 14.3914 16.3299 12 16.3299C9.60857 16.3299 7.66996 14.3913 7.66996 11.9999C7.66996 9.60852 9.60857 7.66992 12 7.66992ZM8.99996 11.9999C8.99996 10.3431 10.3431 8.99992 12 8.99992C13.6568 8.99992 15 10.3431 15 11.9999C15 13.6568 13.6568 14.9999 12 14.9999C10.3431 14.9999 8.99996 13.6568 8.99996 11.9999Z" fill="#001E50"/>
</svg>
