<svg width="46" height="46" viewBox="0 0 46 46" fill="none" xmlns="http://www.w3.org/2000/svg">
<circle cx="23" cy="23" r="20" fill="#001E50"/>
<circle cx="23" cy="23" r="22.5" stroke="#001E50"/>
<path fill-rule="evenodd" clip-rule="evenodd" d="M32.9919 19.0188C32.8379 19.0424 32.6839 19.066 32.5299 19.09L33.1299 20.53C33.702 21.5101 34.0024 22.6251 33.9999 23.76V30.3C34.0224 31.2093 33.3089 31.9674 32.3999 32H30.3999C29.9596 31.9895 29.5415 31.8045 29.2377 31.4857C28.9338 31.1668 28.7692 30.7403 28.7799 30.3V29.78H17.2299V30.29C17.2523 31.2086 16.5284 31.9728 15.6099 32H13.6099C12.6969 31.9728 11.9775 31.2131 11.9999 30.3V23.76C11.9966 22.6237 12.3006 21.5076 12.8799 20.53L13.4599 19.12C12.6899 19.01 11.9299 18.89 11.1599 18.75L11.3299 17.44H11.3999C12.2699 17.6 13.1299 17.74 13.9999 17.86L15.3199 14.66C15.8631 13.7195 16.8285 13.1008 17.9099 13H28.0999C29.1793 13.099 30.1425 13.7187 30.6799 14.66L31.9999 17.83C32.8699 17.7 33.7299 17.57 34.5999 17.41L34.8399 18.71C34.2239 18.83 33.6079 18.9244 32.9919 19.0188ZM17.9999 14.33C17.3919 14.4018 16.8502 14.7482 16.5299 15.27L15.3599 18C20.4316 18.61 25.5582 18.61 30.6299 18L29.4499 15.27C29.1339 14.7533 28.6007 14.4076 27.9999 14.33H17.9999ZM32.3899 30.67H30.4099C30.2298 30.6441 30.102 30.4811 30.1199 30.3V28.45H15.8899V30.29C15.9034 30.4718 15.7789 30.635 15.5999 30.67H13.5999C13.4238 30.6394 13.3015 30.4778 13.3199 30.3V24.3C14.8599 24.52 16.4499 24.71 18.0899 24.83L18.1899 23.5C16.5399 23.38 14.9399 23.2 13.3999 22.97C13.489 22.348 13.6924 21.7479 13.9999 21.2V21.12V21.04L14.7299 19.3C17.403 19.6429 20.095 19.8165 22.7899 19.82C25.5585 19.8144 28.324 19.6341 31.0699 19.28L31.8999 21V21.08V21.16C32.2059 21.688 32.4126 22.2676 32.5099 22.87C30.9966 23.1033 29.4366 23.2833 27.8299 23.41L27.9299 24.73C29.5299 24.61 31.0899 24.42 32.5899 24.2V30.3C32.613 30.4541 32.5315 30.6049 32.3899 30.67ZM22.9999 25.52C23.5522 25.52 23.9999 25.0454 23.9999 24.46C23.9999 23.8746 23.5522 23.4 22.9999 23.4C22.4476 23.4 21.9999 23.8746 21.9999 24.46C21.9999 25.0454 22.4476 25.52 22.9999 25.52Z" fill="white"/>
</svg>
