<svg width="16" height="16" viewBox="0 0 16 16" fill="none" xmlns="http://www.w3.org/2000/svg">
<path fill-rule="evenodd" clip-rule="evenodd" d="M10.98 9.63998C8.32667 12.4466 8.27333 12.4466 8 12.4466C7.71333 12.4466 7.68 12.4466 4.98667 9.61998L5.65333 9.01331C6.32667 9.73998 7.05333 10.5 7.56 11.0133V1.33331H8.41333V11.0333C8.7935 10.6218 9.29968 10.0934 9.73864 9.63505C9.95399 9.41021 10.1532 9.20226 10.3133 9.03331L10.98 9.63998ZM13.1133 13.78V12.0133H14V13.8933C14 14.0996 13.9176 14.2973 13.7711 14.4425C13.6247 14.5877 13.4263 14.6684 13.22 14.6666H2.78C2.57375 14.6684 2.37533 14.5877 2.22886 14.4425C2.08238 14.2973 1.99999 14.0996 2 13.8933V12.0133H2.88667V13.78H13.1133Z" fill="#001E50"/>
</svg>
