<svg width="36" height="40" viewBox="0 0 36 40" fill="none" xmlns="http://www.w3.org/2000/svg">
<path fill-rule="evenodd" clip-rule="evenodd" d="M26.94 24.92C18.98 33.34 18.82 33.34 18 33.34C17.14 33.34 17.04 33.34 8.96 24.86L10.96 23.04C12.98 25.22 15.16 27.5 16.68 29.04V0H19.24V29.1C20.3805 27.8656 21.8991 26.28 23.216 24.9051C23.862 24.2306 24.4595 23.6068 24.94 23.1L26.94 24.92ZM33.34 37.34V32.04H36V37.68C36 38.2988 35.7528 38.8919 35.3134 39.3276C34.874 39.7633 34.2788 40.0053 33.66 40H2.34C1.72124 40.0053 1.12599 39.7633 0.686568 39.3276C0.247148 38.8919 -2.29917e-05 38.2988 1.60408e-09 37.68V32.04H2.66V37.34H33.34Z" fill="white"/>
</svg>
