<svg width="20" height="28" viewBox="0 0 40 48" fill="none" xmlns="http://www.w3.org/2000/svg">
<path fill-rule="evenodd" clip-rule="evenodd" d="M28.9201 22.16C22.8007 22.16 17.8401 17.1993 17.8401 11.08C17.8401 4.96068 22.8007 0 28.9201 0C35.0394 0 40.0001 4.96068 40.0001 11.08C40.0001 14.0186 38.8327 16.8368 36.7548 18.9147C34.6769 20.9926 31.8587 22.16 28.9201 22.16ZM28.9201 2.66C24.2698 2.66 20.5001 6.42976 20.5001 11.08C20.5001 15.7302 24.2698 19.5 28.9201 19.5C33.5703 19.5 37.3401 15.7302 37.3401 11.08C37.3401 6.42976 33.5703 2.66 28.9201 2.66ZM15.0037 3.33V0.67H3.71005L3.43426 0.682383C1.89009 0.821709 0.680054 2.11955 0.680054 3.7V44.3L0.692436 44.5758C0.831762 46.12 2.1296 47.33 3.71005 47.33H34.3101L34.5858 47.3176C36.13 47.1783 37.3401 45.8805 37.3401 44.3V26.3371H34.6801V44.3L34.6612 44.4169C34.6122 44.564 34.4735 44.67 34.3101 44.67H3.71005L3.59311 44.6511C3.44607 44.6022 3.34005 44.4635 3.34005 44.3V3.7L3.35892 3.58305C3.40786 3.43602 3.54658 3.33 3.71005 3.33H15.0037ZM28.3401 37.33V34.67H9.68005V37.33H28.3401ZM24.3401 26.67V29.33H9.68005V26.67H24.3401ZM34.0001 12.33V9.67H30.3401V6H27.6801V9.67H24.0001V12.33H27.6801V16H30.3401V12.33H34.0001Z" fill="white"/>
</svg>
