<svg width="41" height="48" viewBox="0 0 41 48" fill="none" xmlns="http://www.w3.org/2000/svg">
<path fill-rule="evenodd" clip-rule="evenodd" d="M28.9301 22.16C22.8107 22.16 17.8501 17.1993 17.8501 11.08C17.8501 4.96068 22.8107 0 28.9301 0C35.0494 0 40.0101 4.96068 40.0101 11.08C40.0101 14.0186 38.8427 16.8368 36.7648 18.9147C34.6869 20.9926 31.8687 22.16 28.9301 22.16ZM28.9301 2.66C24.2798 2.66 20.5101 6.42976 20.5101 11.08C20.5101 15.7302 24.2798 19.5 28.9301 19.5C33.5803 19.5 37.3501 15.7302 37.3501 11.08C37.3501 6.42976 33.5803 2.66 28.9301 2.66ZM15.0037 0.67V3.33H3.71005C3.54658 3.33 3.40786 3.43602 3.35892 3.58305L3.34005 3.7V44.3C3.34005 44.4635 3.44607 44.6022 3.59311 44.6511L3.71005 44.67H34.3101C34.4735 44.67 34.6122 44.564 34.6612 44.4169L34.6801 44.3V26.3371H37.3401V44.3C37.3401 45.8805 36.13 47.1783 34.5858 47.3176L34.3101 47.33H3.71005C2.1296 47.33 0.831762 46.12 0.692436 44.5758L0.680054 44.3V3.7C0.680054 2.11955 1.89009 0.821709 3.43426 0.682383L3.71005 0.67H15.0037ZM28.3401 34.67V37.33H9.68005V34.67H28.3401ZM24.3401 29.33V26.67H9.68005V29.33H24.3401ZM22.1101 11.56L23.8101 9.5L28.0301 12.98L34.0501 6.98L35.9301 8.86L28.2101 16.58L22.1101 11.56Z" fill="white"/>
</svg>
