<svg width="16" height="16" viewBox="0 0 16 16" fill="none" xmlns="http://www.w3.org/2000/svg">
<path fill-rule="evenodd" clip-rule="evenodd" d="M2.66675 1.33331H12.0001C12.7365 1.33331 13.3334 1.93027 13.3334 2.66665V13.3333C13.3334 14.0697 12.7365 14.6666 12.0001 14.6666H2.66675V1.33331ZM12.4467 2.66665C12.4464 2.42011 12.2466 2.22035 12.0001 2.21998H3.55341V13.78H12.0001C12.2466 13.7796 12.4464 13.5798 12.4467 13.3333V2.66665ZM8.58741 10.6113H10.3207V11.498H5.67808V10.6113H7.70075V7.73331H6.34075V6.84665H8.58741V10.6113ZM8.44712 4.65552C8.34833 4.552 8.20972 4.49605 8.06675 4.50198C7.92366 4.49586 7.78487 4.55172 7.68593 4.65526C7.58698 4.75881 7.53747 4.89998 7.55008 5.04265C7.54329 5.23154 7.64019 5.40906 7.80274 5.50552C7.96529 5.60198 8.16754 5.60198 8.33009 5.50552C8.49264 5.40906 8.58954 5.23154 8.58275 5.04265C8.59534 4.9001 8.54592 4.75904 8.44712 4.65552Z" fill="white"/>
</svg>
