<svg width="36" height="41" viewBox="0 0 36 41" fill="none" xmlns="http://www.w3.org/2000/svg">
<path fill-rule="evenodd" clip-rule="evenodd" d="M26.94 9.08016C18.98 0.660156 18.82 0.660156 18 0.660156C17.14 0.660156 17.04 0.660156 8.96 9.12016L10.96 10.9602C12.98 8.80016 15.16 6.50016 16.68 4.96016V34.0002H19.24V4.92016C20.3569 6.11591 21.8364 7.66562 23.134 9.02477C23.8114 9.73433 24.4392 10.3919 24.94 10.9202L26.94 9.08016ZM33.34 38.0002V32.7002H36V38.3402C36 38.9589 35.7528 39.5521 35.3134 39.9878C34.874 40.4234 34.2788 40.6655 33.66 40.6602H2.34C1.72124 40.6655 1.12599 40.4234 0.686568 39.9878C0.247148 39.5521 -2.29917e-05 38.9589 1.60408e-09 38.3402V32.7002H2.66V38.0002H33.34Z" fill="white"/>
</svg>
