<svg width="32" height="32" viewBox="0 0 32 32" fill="none" xmlns="http://www.w3.org/2000/svg">
<path fill-rule="evenodd" clip-rule="evenodd" d="M32 16C32 24.8571 24.8571 32 16 32C7.14286 32 0 24.8571 0 16C0 7.14286 7.14286 0 16 0C24.8571 0 32 7.14286 32 16ZM15.873 12.2413C15.8984 12.2921 15.9238 12.3429 16 12.3429C16.0762 12.3429 16.1016 12.2921 16.127 12.2413C16.1397 12.2159 16.1524 12.1905 16.1714 12.1714L20.5714 2.68571C19.1429 2.17143 17.6 1.88571 16 1.88571C14.4 1.88571 12.8571 2.17143 11.4286 2.68571L15.8286 12.1714C15.8476 12.1905 15.8603 12.2159 15.873 12.2413ZM1.94286 16C1.94286 23.7143 8.28571 30.1143 16 30.1143C23.7143 30.1143 30.0571 23.7143 30.1143 16C30.1143 14.3429 29.8286 12.8 29.3143 11.3714L21.0857 27.3714C20.9714 27.6 20.8571 27.7714 20.5714 27.7714C20.2857 27.7714 20.1714 27.6 20.0571 27.3714L16.1714 18.8571C16.1524 18.8381 16.1397 18.8127 16.127 18.7873C16.1016 18.7365 16.0762 18.6857 16 18.6857C15.9429 18.6857 15.8857 18.7429 15.8286 18.8571L12 27.3714C11.8857 27.6 11.7714 27.7714 11.4857 27.7714C11.2 27.7714 11.0857 27.6 10.9714 27.3714L2.74286 11.3714C2.22857 12.8571 1.94286 14.4 1.94286 16ZM11.3714 22.6286C11.2952 22.6286 11.2698 22.5778 11.2444 22.527C11.2317 22.5016 11.219 22.4762 11.2 22.4571L4 8.62857C5.25714 6.57143 7.08571 4.85714 9.2 3.65714L14.2857 14.6286C14.4 14.8571 14.5143 14.9143 14.6857 14.9143H17.3143C17.4857 14.9143 17.6 14.8571 17.7143 14.6286L22.7429 3.65714C24.8571 4.85714 26.6857 6.57143 27.9429 8.62857L20.8 22.4571C20.7429 22.5714 20.6857 22.6286 20.6286 22.6286C20.5524 22.6286 20.527 22.5778 20.5016 22.527C20.4889 22.5016 20.4762 22.4762 20.4571 22.4571L17.7143 16.4C17.6 16.1714 17.4857 16.1143 17.3143 16.1143H14.6857C14.5143 16.1143 14.4 16.1714 14.2857 16.4L11.5429 22.4571C11.5238 22.4762 11.5111 22.5016 11.4984 22.527C11.473 22.5778 11.4476 22.6286 11.3714 22.6286Z" fill="#001E50"/>
</svg>
