<?xml version="1.0" standalone="no"?>
<!DOCTYPE svg PUBLIC "-//W3C//DTD SVG 20010904//EN"
 "http://www.w3.org/TR/2001/REC-SVG-20010904/DTD/svg10.dtd">
<svg version="1.0" xmlns="http://www.w3.org/2000/svg"
 width="413.000000pt" height="59.000000pt" viewBox="0 0 413.000000 59.000000"
 preserveAspectRatio="xMidYMid meet">

<g transform="translate(0.000000,59.000000) scale(0.100000,-0.100000)"
fill="#000000" stroke="none">
<path d="M585 524 c-99 -35 -187 -64 -197 -64 -9 0 -94 27 -189 60 -95 33
-176 59 -181 58 -6 -2 95 -172 116 -196 2 -1 17 3 34 9 31 11 31 11 17 40 -9
16 -13 29 -10 29 3 0 29 -12 57 -26 l52 -26 -54 -22 c-79 -32 -76 -47 40 -228
90 -139 95 -145 98 -113 2 19 -13 85 -33 150 -20 64 -35 118 -33 120 2 1 22
12 46 24 l42 21 40 -20 c22 -11 40 -26 40 -32 0 -6 -16 -64 -36 -129 -19 -65
-34 -130 -32 -145 3 -25 16 -8 101 124 55 84 101 161 104 172 6 21 -40 55 -90
66 -35 7 -27 16 37 43 39 17 47 18 42 6 -3 -8 -8 -21 -11 -28 -5 -11 31 -37
50 -37 2 0 28 38 58 84 54 82 81 127 75 125 -2 0 -84 -29 -183 -65z"/>
<path d="M1132 430 c-20 -19 -22 -31 -22 -120 0 -148 -17 -140 290 -140 l250
0 0 40 0 40 -230 0 -230 0 0 60 0 60 230 0 230 0 0 40 0 40 -248 0 c-236 0
-249 -1 -270 -20z"/>
<path d="M1722 329 c4 -169 -13 -159 277 -159 286 0 271 -9 271 163 l0 117
-45 0 -45 0 0 -100 0 -100 -180 0 -180 0 0 100 0 100 -51 0 -51 0 4 -121z"/>
<path d="M2340 310 l0 -140 45 0 45 0 0 39 0 40 211 3 c208 3 211 3 230 27 27
33 27 123 -1 151 -19 19 -33 20 -275 20 l-255 0 0 -140z m465 45 l0 -30 -187
-3 -188 -2 0 35 0 35 188 -2 187 -3 0 -30z"/>
<path d="M2970 310 l0 -140 45 0 45 0 0 45 0 45 154 0 154 0 29 -45 c27 -43
30 -45 76 -45 26 0 47 2 47 6 0 3 -11 21 -25 41 l-24 36 24 23 c33 31 36 123
5 154 -19 19 -33 20 -275 20 l-255 0 0 -140z m470 50 l0 -30 -190 0 -190 0 0
30 0 30 190 0 190 0 0 -30z"/>
<path d="M3605 425 c-24 -23 -25 -30 -25 -140 l0 -115 45 0 45 0 0 40 0 40
185 0 185 0 0 -40 0 -40 45 0 45 0 0 140 0 140 -250 0 -251 0 -24 -25z m435
-70 l0 -35 -185 0 -185 0 0 35 0 35 185 0 185 0 0 -35z"/>
</g>
</svg>
