<?xml version="1.0" encoding="utf-8"?>
<!-- Generator: Adobe Illustrator 24.2.0, SVG Export Plug-In . SVG Version: 6.00 Build 0)  -->
<svg version="1.1" id="Calque_1" xmlns="http://www.w3.org/2000/svg" xmlns:xlink="http://www.w3.org/1999/xlink" x="0px" y="0px"
	 width="151.2px" height="130.7px" viewBox="0 0 151.2 130.7" style="enable-background:new 0 0 151.2 130.7;" xml:space="preserve"
	>
<style type="text/css">
	.st0{fill:#003DA6;stroke:#FFFFFF;stroke-miterlimit:10;}
	.st1{fill:#FFFFFF;}
	.st2{fill:#CE0E2D;}
	.st3{fill:#003DA6;}
</style>
<g>
	<path class="st0" d="M75.5,0.5c-1.3-0.1-2.7,0.3-4.1,0.7c0,0-17.1,5.9-29.9,6.8c0,0-16.7,1.7-24.4,0.8c0,0-13.9-1.1-16.1-2.1
		c0,0,1.2,2.8,2.1,9.1c0,0,0.8,7.7,1,13.1L4.3,83c0,0-0.6,12.6,4.2,19.3c0,0,6.2,11.9,26.7,14.8c0,0,20.7,0.9,40.3,12.9l0.1,0.1
		c19.6-12,40.3-12.9,40.3-12.9c20.5-2.9,26.7-14.8,26.7-14.8c4.9-6.8,4.2-19.3,4.2-19.3l0.3-54.1c0.1-5.4,1-13.1,1-13.1
		c0.8-6.3,2.1-9.1,2.1-9.1c-2.2,1-16.1,2.1-16.1,2.1c-7.7,0.8-24.4-0.8-24.4-0.8C96.9,7.2,79.8,1.3,79.8,1.3c-1.4-0.4-2.7-0.8-4-0.7
		L75.5,0.5z"/>
	<path class="st1" d="M75.5,9.6c-1,0-2.2,0-3.2,0.3c0,0-15,5.1-26.3,5.8c0,0-14.7,1.4-21.5,0.7c0,0-11.2-0.7-14.2-1.8
		c0,0,1.1,2.4,1.8,7.9c0,0,0.8,6.4,0.8,11.3l0.2,46.9c0,0-0.5,10.9,3.7,16.7c0,0,4.6,10.3,23.1,12.9c0,0,18.4,0.7,35.5,10.8l0.2,0
		c17.1-10.1,35.3-10.7,35.3-10.7c18.5-2.6,23.1-12.9,23.1-12.9c4.3-5.8,3.7-16.7,3.7-16.7L138,34c0-5,0.8-11.3,0.8-11.3
		c0.7-5.5,1.8-7.9,1.8-7.9c-3,1.1-14.2,1.8-14.2,1.8c-6.8,0.7-21.5-0.7-21.5-0.7C93.7,15.1,78.7,10,78.7,10c-1-0.3-1.9-0.4-2.9-0.4
		L75.5,9.6z"/>
	<polygon class="st2" points="75,21.5 21.2,40.1 21.2,42.3 23.9,42.3 23.9,50.3 128.4,50.3 128.4,42.3 130.5,42.3 130.5,40.1 	"/>
	<polygon class="st2" points="126.1,90.4 25.3,90.4 22.4,102.1 129,102.1 	"/>
	<path class="st3" d="M45.1,53.8c0,0-4.2-2.3-8.1-1c0,0-7.7,1.7-7.6,9.7c0,0-0.5,6.1,7.4,9.2c0,0,5,1.8,7.6,4.1c0,0,4.3,4.2,0.6,8.5
		c0,0-2.4,4.2-8.2,2.2c0,0-4.3-1.1-6.1-6.3c0,0-0.5-1.2-0.8-1.7c0,0-0.2-0.9-1.1-0.6c0,0-0.6,0.1-0.3,1.2l1.7,7.4
		c0,0,1.7,2.1,9.1,2.4c0,0,10.3-0.6,10.7-11c0,0,0.7-6.1-5.4-8.9c0,0-7.9-3.2-9.6-4.6c0,0-4-3.5-1.1-7.6c0,0,3.4-4.3,9.1-1.5
		c0,0,3.2,1.4,4.8,6c0,0,0.1,1.6,1,1.2c0,0,0.5,0.1,0.3-1.2c0,0-0.8-6.1-0.8-6.7c0,0,0.1-0.8-0.5-1c0,0-0.5-0.1-0.8,0.3
		c0,0-0.1,0.7-1.1,0.3L45.1,53.8z"/>
	<path class="st3" d="M55.4,59v24.6c0,0-0.1,2.8-1.4,3.4c0,0-0.8,0.3-1.6,0.4c0,0-0.8,0.1-0.8,0.8c0,0-0.1,0.8,1.1,0.8
		c0,0,2.3-0.2,3.8-0.2c0,0,2.1,0,3.4,0.3c0,0,1,0.1,1.6-0.2c0,0,0.5-0.2,0.4-0.8c0,0,0-0.6-0.9-0.6c0,0-0.9,0-2.1-0.5
		c0,0-1.4-0.3-1.4-3.2V61.1l21.5,27.6c0,0,0.3,0.7,1.1,0.6c0,0,0.5-0.1,0.5-1V58c0,0,0.1-3.7,1.9-3.8c0,0,1,0.1,1.1-0.9
		c0,0,0.1-0.8-1-0.8c0,0-0.8,0.3-2.6,0.2c0,0-2.3,0.1-3.9-0.3c0,0-1.7-0.3-2,0.6c0,0-0.3,0.8,0.6,1c0,0,1.2-0.3,2.7,0.9
		c0,0,1.1,0.4,1.2,3.3v20.8L59.3,53.9c0,0-0.6-1.3-2.5-1.4h-5.9c0,0-0.9-0.1-1,0.7c0,0-0.2,0.6,0.9,0.7c0,0,2.1-0.1,3.2,1.7L55.4,59
		z"/>
	<path class="st3" d="M91,52.8c0,0-2.9-0.1-4-0.2c0,0-2.1-0.3-2.5,0.2c0,0-0.5,0.8,0,1.1c0,0,0.8,0,1.3,0.1c0,0,2.3-0.3,2.4,3.1
		v27.3c0,0,0,2.4-1.5,2.8c0,0-1,0.2-1.4,0.3c0,0-0.5,0.2-0.3,1c0,0,0.1,0.5,1.4,0.5c0,0,2.5-0.1,3.7-0.3c0,0,2-0.2,3.5,0.1
		c0,0,2.9,0.3,3.6,0.2c0,0,1-0.1,1-0.8c0,0,0.2-0.7-0.8-0.8c0,0-1.5-0.1-1.9-0.2c0,0-1.7-0.3-1.9-3.2V56.8c0,0-0.2-2.6,2.3-2.3
		c0,0,5.9,0.1,7.2,7.4c0,0,1.1,6-3.4,8.3c0,0-1.1,0.8-3.6,0.7c0,0-1.4-0.3-1.5,0.3c0,0-0.6,1.3,1.4,1.7c0,0,7,1,10.9-4.7
		c0,0,4-5.9-0.4-11.8c0,0-2.7-3.4-7.9-3.7c0,0-3.2-0.1-4.7,0.1C93.6,52.6,91.9,52.9,91,52.8"/>
	<path class="st3" d="M114.9,52.9c0,0-3.4,0-4.5-0.3c0,0-1.5-0.3-2.2,0.1c0,0-0.6,1,0.4,1.2c0,0,1.1,0,2.3,0.3c0,0,1.4-0.2,1.6,5.3
		v24.7c0,0,0,2.6-1.5,2.9c0,0-1.5,0-1.7,0.8c0,0-0.3,1,1.3,0.9c0,0,2.8-0.4,4.3-0.4c0,0,3.2,0,5.4,0.4c0,0,2,0.1,2.1-0.7
		c0,0,0.3-1-1.2-1c0,0-3.1,0.3-3.4-3V59.2c0,0-0.3-4.2,1.4-4.8c0,0,1.5-0.2,1.6-0.6c0,0,0.4-0.8-0.6-1.1c0,0-0.6-0.2-2.3,0
		C117.8,52.6,116,53,114.9,52.9"/>
</g>
</svg>
