<?xml version="1.0" standalone="no"?>
<!DOCTYPE svg PUBLIC "-//W3C//DTD SVG 20010904//EN"
 "http://www.w3.org/TR/2001/REC-SVG-20010904/DTD/svg10.dtd">
<svg version="1.0" xmlns="http://www.w3.org/2000/svg"
 width="1482.000000pt" height="1243.000000pt" viewBox="0 0 1482.000000 1243.000000"
 preserveAspectRatio="xMidYMid meet">

<g transform="translate(0.000000,1243.000000) scale(0.100000,-0.100000)"
fill="#000000" stroke="none">
<path d="M6625 10824 c-49 -2 -241 -8 -425 -14 -1132 -36 -1475 -76 -1710
-202 -213 -113 -324 -263 -385 -520 -30 -127 -42 -249 -50 -488 -3 -102 -8
-232 -10 -290 -11 -255 -17 -680 -10 -680 4 0 296 -50 649 -111 352 -61 742
-128 866 -149 124 -22 475 -82 780 -135 305 -53 787 -136 1070 -185 283 -49
749 -130 1035 -179 286 -50 678 -117 870 -150 193 -34 454 -79 580 -101 724
-126 911 -157 918 -153 4 2 7 166 7 363 l0 359 -52 10 c-29 6 -213 40 -408 76
-195 36 -521 97 -725 135 -203 38 -665 124 -1025 190 -617 114 -827 153 -1535
285 -159 29 -501 93 -760 140 -258 48 -472 89 -474 91 -11 10 70 78 124 104
113 55 152 60 535 72 317 9 2203 4 2300 -6 19 -2 143 -7 275 -10 251 -7 643
-22 780 -31 44 -2 145 -7 225 -10 80 -3 181 -8 225 -11 96 -5 462 -24 488 -24
10 0 16 3 14 8 -3 4 -8 79 -11 167 -12 271 -46 864 -57 980 -11 124 -32 207
-60 247 -25 34 -105 73 -189 92 -36 8 -168 22 -295 30 -126 9 -261 18 -300 21
-38 3 -155 9 -260 15 -104 6 -221 12 -260 15 -38 2 -142 7 -230 10 -88 3 -182
8 -210 10 -27 2 -156 7 -285 11 -129 3 -260 8 -290 10 -71 5 -1607 12 -1725 8z"/>
<path d="M4020 7870 c0 -225 3 -410 8 -410 4 0 86 -14 182 -30 96 -17 398 -69
670 -115 272 -46 758 -129 1080 -184 322 -55 691 -118 820 -140 129 -22 476
-81 770 -131 294 -51 730 -125 969 -165 238 -41 436 -76 438 -79 11 -11 -96
-102 -149 -128 -130 -64 -97 -62 -938 -60 -883 3 -1629 12 -2090 27 -80 3
-228 7 -330 10 -294 9 -866 35 -1115 49 -44 3 -133 8 -198 12 l-117 7 5 -29
c2 -16 7 -92 10 -169 3 -77 12 -270 20 -430 34 -666 51 -823 95 -885 46 -65
148 -102 324 -120 200 -19 1171 -74 1531 -85 94 -3 202 -8 240 -10 396 -24
2219 -24 2495 0 25 2 119 6 210 10 990 36 1271 86 1511 271 83 64 134 127 185
230 97 197 116 339 134 1004 5 201 12 440 15 532 l6 166 -53 11 c-29 6 -368
69 -753 140 -934 173 -1882 350 -2475 461 -399 75 -1126 210 -1450 270 -212
39 -493 92 -625 116 -132 25 -433 81 -670 125 -236 44 -486 90 -555 103 -69
13 -142 27 -162 30 l-38 7 0 -411z"/>
<path d="M1958 3189 c-172 -22 -285 -105 -333 -244 -23 -66 -31 -214 -16 -300
31 -178 130 -272 323 -311 40 -7 452 -45 916 -84 548 -46 855 -75 876 -84 61
-25 87 -89 66 -165 -8 -30 -20 -48 -43 -61 -31 -19 -58 -20 -1049 -20 l-1018
0 0 -160 0 -161 1083 4 c949 2 1088 5 1132 18 172 54 251 141 281 308 25 140
11 288 -34 378 -28 53 -102 120 -167 148 -83 37 -186 53 -520 80 -1216 98
-1375 113 -1408 132 -43 26 -59 58 -54 116 5 56 26 83 76 97 23 6 394 10 1019
10 l982 0 0 155 0 155 -1022 -1 c-563 -1 -1053 -5 -1090 -10z"/>
<path d="M4730 2633 c0 -623 3 -653 59 -768 53 -106 159 -191 289 -230 108
-33 223 -36 1177 -33 l950 3 3 135 c1 74 0 145 -3 158 l-5 22 -933 0 c-658 0
-944 3 -972 11 -51 15 -110 74 -123 124 -9 34 -17 148 -13 195 1 13 116 15
981 12 l980 -2 0 155 0 155 -979 0 -979 0 -4 143 c-2 78 -2 148 0 154 3 10
221 13 1026 15 l1021 3 1 145 c1 80 -1 151 -3 158 -4 9 -261 12 -1239 12
l-1234 0 0 -567z"/>
<path d="M8346 3188 c-203 -23 -355 -120 -427 -273 -59 -126 -60 -128 -59
-740 0 -308 0 -563 0 -567 0 -5 95 -8 210 -8 l210 0 0 235 0 235 800 0 800 0
0 -235 0 -235 210 0 c133 0 210 4 210 10 0 6 0 361 0 790 0 429 0 785 0 790 0
13 -1841 11 -1954 -2z m1534 -558 l0 -250 -801 0 -801 0 5 153 c6 196 24 249
102 303 17 12 44 26 60 32 20 7 264 11 733 11 l702 1 0 -250z"/>
<path d="M10820 3040 l0 -160 495 0 495 0 0 -640 0 -640 210 0 210 0 2 638 3
637 498 3 497 2 0 160 0 160 -1205 0 -1205 0 0 -160z"/>
</g>
</svg>
