<?xml version="1.0" standalone="no"?>
<!DOCTYPE svg PUBLIC "-//W3C//DTD SVG 20010904//EN"
 "http://www.w3.org/TR/2001/REC-SVG-20010904/DTD/svg10.dtd">
<svg version="1.0" xmlns="http://www.w3.org/2000/svg"
 width="2000.000000pt" height="280.000000pt" viewBox="0 0 2000.000000 280.000000"
 preserveAspectRatio="xMidYMid meet">

<g transform="translate(0.000000,280.000000) scale(0.100000,-0.100000)"
fill="#0e3a2f" stroke="none">
<path d="M535 2784 c-172 -36 -310 -142 -383 -294 -64 -135 -67 -160 -67 -480
0 -263 2 -292 23 -375 64 -255 207 -399 462 -467 l85 -22 1033 -3 1032 -4 0
-195 c0 -212 -6 -243 -58 -297 -56 -58 -25 -57 -1211 -57 l-1086 -1 -182 -292
-181 -292 1326 -3 c938 -2 1355 0 1422 8 253 30 436 142 532 326 79 151 103
317 95 662 -5 253 -13 298 -74 422 -65 133 -196 238 -358 286 -55 17 -138 18
-1065 24 -962 5 -1007 6 -1043 24 -22 11 -51 37 -65 59 l-27 41 -3 473 -3 473
-67 -1 c-37 0 -98 -7 -137 -15z"/>
<path d="M1107 2653 c53 -82 138 -212 189 -290 l93 -143 778 0 778 0 170 267
c94 146 176 277 183 290 l13 23 -1150 0 -1150 0 96 -147z"/>
<path d="M4110 1400 l0 -1400 335 0 335 0 0 555 0 555 425 0 424 0 576 -555
576 -555 472 0 472 1 -47 42 c-149 134 -1438 1362 -1436 1368 2 3 305 293 673
644 369 350 695 661 725 691 l55 54 -445 0 -445 -1 -572 -544 -573 -545 -440
0 -440 0 0 545 0 545 -335 0 -335 0 0 -1400z"/>
<path d="M8800 2793 c-534 -60 -850 -377 -900 -901 -13 -139 -13 -845 0 -984
40 -416 250 -707 603 -833 201 -72 169 -70 1177 -70 1008 0 976 -2 1177 70
353 126 563 417 603 833 13 139 13 845 0 984 -39 411 -247 703 -591 829 -46
17 -124 41 -174 52 -87 20 -116 21 -975 23 -487 0 -901 -1 -920 -3z m1660
-604 c144 -23 262 -112 312 -236 l23 -58 0 -495 0 -495 -23 -58 c-50 -124
-168 -213 -312 -236 -88 -15 -1472 -15 -1560 0 -144 23 -262 112 -312 236
l-23 58 0 495 0 495 23 58 c49 120 169 213 303 236 79 13 1489 13 1569 0z"/>
<path d="M12210 1400 l0 -1400 1223 0 c787 0 1253 4 1307 10 542 67 859 388
909 921 14 148 14 790 0 938 -50 533 -366 854 -909 921 -54 6 -520 10 -1307
10 l-1223 0 0 -1400z m2415 790 c186 -27 322 -154 355 -329 6 -30 10 -230 10
-461 0 -231 -4 -431 -10 -461 -33 -175 -169 -302 -355 -329 -42 -6 -399 -10
-907 -10 l-838 0 0 800 0 800 838 0 c508 0 865 -4 907 -10z"/>
<path d="M17477 2758 c-13 -24 -365 -650 -782 -1393 -417 -742 -759 -1353
-762 -1357 -2 -5 164 -8 370 -8 l374 0 293 520 c161 287 297 519 301 518 5 -2
86 -127 182 -278 l173 -275 671 -3 671 -2 134 -240 133 -240 383 0 383 0 -35
63 c-19 34 -372 663 -785 1397 l-749 1335 -465 3 -465 2 -25 -42z m818 -1082
c179 -318 324 -580 322 -582 -2 -2 -301 -3 -665 -2 l-661 3 332 587 c182 323
334 584 338 580 4 -4 154 -267 334 -586z"/>
</g>
</svg>
