<?xml version="1.0" standalone="no"?>
<!DOCTYPE svg PUBLIC "-//W3C//DTD SVG 20010904//EN"
 "http://www.w3.org/TR/2001/REC-SVG-20010904/DTD/svg10.dtd">
<svg version="1.0" xmlns="http://www.w3.org/2000/svg"
 width="2750.000000pt" height="3154.000000pt" viewBox="0 0 2750.000000 3154.000000"
 preserveAspectRatio="xMidYMid meet">

<g transform="translate(0.000000,3154.000000) scale(0.100000,-0.100000)"
fill="#132c64" stroke="none">
<path d="M13315 25619 c-1029 -78 -1995 -409 -2850 -977 -635 -422 -1205 -991
-1632 -1632 -150 -224 -258 -412 -383 -665 -326 -661 -510 -1310 -587 -2075
-13 -132 -17 -265 -17 -545 0 -395 10 -545 59 -879 224 -1522 1043 -2900 2278
-3832 903 -682 1924 -1070 3087 -1176 183 -16 768 -16 950 0 784 71 1468 259
2135 587 1800 884 3036 2639 3259 4625 49 436 49 912 0 1355 -167 1507 -935
2919 -2114 3886 -956 785 -2103 1241 -3342 1329 -169 12 -680 11 -843 -1z
m925 -554 c301 -31 608 -86 855 -155 144 -40 395 -122 395 -129 0 -19 -1692
-3800 -1708 -3818 -25 -28 -46 -29 -70 -5 -12 12 -1666 3707 -1707 3813 -5 12
28 26 172 72 436 140 774 201 1318 241 113 8 600 -4 745 -19z m-2091 -2822
c534 -1189 980 -2180 991 -2203 37 -72 17 -70 605 -70 566 0 563 0 597 52 8
13 455 1004 993 2203 538 1199 981 2183 984 2187 9 10 279 -155 447 -272 537
-374 1042 -886 1408 -1428 l67 -98 -1367 -2754 c-751 -1515 -1377 -2766 -1390
-2780 -27 -28 -43 -23 -76 21 -10 13 -248 551 -528 1194 -281 644 -519 1185
-529 1204 -9 19 -32 42 -51 53 -32 17 -69 18 -553 18 -459 0 -523 -2 -553 -16
-44 -21 -6 61 -610 -1323 -363 -833 -505 -1148 -521 -1158 -20 -14 -26 -14
-46 0 -15 10 -459 895 -1391 2773 -753 1518 -1371 2762 -1372 2765 -2 4 31 55
72 115 473 677 1032 1206 1701 1609 76 46 141 80 145 77 4 -4 443 -980 977
-2169z m-1835 -3818 c861 -1732 1578 -3167 1594 -3190 70 -100 216 -102 293
-4 15 19 357 774 759 1679 402 905 741 1655 753 1668 26 28 38 28 66 -2 12
-13 351 -761 752 -1662 401 -902 741 -1657 756 -1678 37 -51 85 -76 148 -76
61 0 109 23 146 70 15 19 733 1455 1594 3190 862 1735 1570 3159 1575 3163 9
10 86 -209 144 -414 82 -287 142 -611 178 -959 20 -195 17 -794 -5 -1005 -150
-1419 -830 -2691 -1927 -3604 -707 -589 -1562 -989 -2457 -1151 -345 -62 -489
-74 -923 -75 -404 0 -488 5 -775 46 -1866 269 -3482 1548 -4200 3324 -426
1054 -500 2232 -209 3345 48 185 155 503 165 493 5 -5 713 -1426 1573 -3158z"/>
<path d="M10031 10705 c-62 -108 -114 -203 -115 -213 -1 -15 15 -17 170 -20
l171 -2 148 196 c81 109 150 206 153 216 4 17 -7 18 -205 18 l-208 0 -114
-195z"/>
<path d="M12801 10874 c-68 -35 -101 -83 -108 -162 -7 -73 9 -123 54 -173 87
-96 279 -88 358 15 64 84 53 220 -24 289 -71 64 -188 77 -280 31z"/>
<path d="M11020 9840 l0 -1020 200 0 200 0 0 499 0 500 56 40 c76 55 153 82
233 83 117 2 180 -30 227 -114 l29 -53 3 -477 3 -478 200 0 201 0 -4 503 c-5
549 -5 550 -68 685 -36 78 -124 168 -200 205 -192 94 -444 66 -632 -68 l-48
-35 0 375 0 375 -200 0 -200 0 0 -1020z"/>
<path d="M16530 10018 c1 -842 4 -945 36 -1042 24 -71 92 -136 169 -161 65
-21 227 -26 338 -11 l57 7 0 135 0 134 -84 0 c-46 0 -91 3 -100 6 -14 6 -16
93 -16 890 l0 884 -200 0 -200 0 0 -842z"/>
<path d="M7510 10791 c0 -5 158 -449 350 -986 193 -537 350 -979 350 -981 0
-2 112 -4 249 -4 l249 0 10 28 c5 15 163 456 351 979 187 524 341 957 341 963
0 6 -78 10 -223 10 l-222 0 -200 -622 c-109 -343 -221 -692 -248 -777 -27 -84
-52 -149 -57 -145 -4 5 -119 354 -256 777 l-248 767 -223 0 c-127 0 -223 -4
-223 -9z"/>
<path d="M9945 10260 c-354 -64 -567 -339 -566 -734 0 -207 44 -359 143 -491
94 -124 243 -215 402 -244 87 -16 308 -13 417 5 84 14 284 73 316 92 9 6 0 45
-33 148 l-46 140 -112 -32 c-293 -84 -501 -66 -606 54 -42 47 -80 134 -80 182
l0 30 469 0 468 0 7 61 c11 113 7 302 -9 364 -41 159 -142 288 -279 355 -44
22 -108 47 -141 56 -71 18 -279 27 -350 14z m285 -304 c86 -44 129 -112 145
-227 11 -84 30 -79 -302 -79 l-296 0 5 48 c11 113 95 231 191 266 58 21 209
16 257 -8z"/>
<path d="M13985 10260 c-276 -44 -471 -204 -550 -451 -51 -162 -57 -362 -14
-526 60 -237 217 -399 459 -475 67 -20 94 -23 255 -23 166 0 189 2 289 28 60
16 119 33 131 39 l22 10 -38 145 c-21 80 -40 147 -42 149 -1 2 -32 -5 -66 -16
-358 -108 -597 8 -631 307 -18 166 20 305 109 394 110 110 281 132 510 66 l79
-23 36 136 c20 75 36 144 36 153 0 18 -76 44 -205 72 -87 19 -300 27 -380 15z"/>
<path d="M17860 10256 c-267 -57 -443 -226 -522 -501 -32 -112 -32 -351 0
-468 57 -209 170 -352 347 -437 110 -53 197 -70 355 -70 141 0 230 10 354 41
80 20 206 67 206 76 0 8 -81 266 -86 274 -2 4 -39 -4 -81 -18 -138 -43 -213
-56 -343 -57 -107 0 -133 3 -180 22 -99 39 -177 140 -195 250 l-7 42 470 0
470 0 6 33 c4 17 9 86 13 152 17 343 -140 578 -437 650 -91 22 -289 28 -370
11z m279 -292 c106 -31 177 -141 169 -261 l-3 -48 -299 -3 -298 -2 7 47 c16
112 88 215 180 259 61 29 164 32 244 8z"/>
<path d="M19299 10255 c-188 -36 -309 -117 -377 -255 -25 -51 -27 -64 -27
-180 0 -117 2 -129 28 -182 34 -69 111 -142 192 -182 32 -15 137 -48 234 -73
189 -48 238 -68 270 -109 28 -35 28 -102 1 -137 -71 -90 -352 -79 -574 22 -38
17 -73 28 -77 24 -4 -5 -33 -68 -63 -141 l-55 -134 62 -28 c154 -69 310 -100
511 -100 228 0 372 46 482 155 157 156 161 432 8 581 -67 64 -166 108 -361
158 -244 64 -283 87 -283 174 0 54 36 95 101 112 91 25 278 4 448 -52 47 -15
65 -17 71 -8 22 35 101 263 94 270 -14 12 -162 58 -244 75 -107 23 -346 28
-441 10z"/>
<path d="M12720 9525 l0 -705 195 0 195 0 0 705 0 705 -195 0 -195 0 0 -705z"/>
<path d="M14850 9733 c0 -550 3 -584 62 -703 18 -38 55 -88 87 -121 93 -92
194 -129 355 -129 153 0 263 37 386 129 30 23 57 41 60 41 3 0 16 -29 28 -65
l24 -65 159 0 159 0 0 705 0 705 -195 0 -195 0 0 -505 0 -505 -62 -41 c-127
-81 -273 -101 -370 -48 -33 19 -50 37 -73 84 l-30 60 -3 478 -3 477 -195 0
-194 0 0 -497z"/>
<path d="M10780 7979 c-99 -19 -170 -105 -170 -206 0 -135 85 -216 226 -217
142 -1 230 81 228 214 0 53 -5 76 -26 111 -46 78 -152 118 -258 98z"/>
<path d="M12393 7979 c-119 -23 -178 -100 -171 -224 4 -78 26 -121 87 -165 81
-57 217 -47 295 21 54 48 69 89 64 179 -3 58 -8 75 -34 107 -52 66 -151 100
-241 82z"/>
<path d="M15919 7980 c-61 -10 -120 -51 -149 -103 -37 -64 -34 -159 6 -223 42
-68 104 -99 198 -98 149 2 234 91 224 235 -10 132 -130 213 -279 189z"/>
<path d="M11390 7102 c0 -512 4 -870 10 -922 14 -110 55 -199 113 -241 70 -51
131 -62 302 -57 83 3 157 8 163 12 8 5 12 48 12 137 l0 129 -74 0 c-41 0 -86
4 -100 10 l-26 10 0 880 0 880 -200 0 -200 0 0 -838z"/>
<path d="M7423 7203 c3 -614 5 -696 21 -763 72 -307 235 -479 521 -552 79 -20
113 -23 285 -22 167 1 207 4 275 22 267 72 436 241 504 505 35 136 42 298 39
912 l-3 580 -202 3 -203 2 0 -629 c0 -694 -3 -731 -60 -848 -43 -87 -121 -156
-207 -183 -80 -24 -216 -27 -290 -5 -113 34 -202 125 -246 255 -22 64 -22 76
-27 735 l-5 670 -203 3 -203 2 4 -687z"/>
<path d="M9558 7473 l-3 -167 -122 -40 -123 -40 0 -108 0 -108 124 0 125 0 3
-432 c3 -418 4 -435 25 -487 32 -78 62 -117 118 -156 116 -81 337 -98 589 -45
l56 11 0 161 0 160 -22 -6 c-13 -3 -61 -13 -108 -22 -132 -25 -199 -9 -240 59
-19 30 -20 53 -20 395 l0 362 200 0 200 0 0 150 0 150 -200 0 -200 0 -2 163
-3 162 -197 3 -198 2 -2 -167z"/>
<path d="M13108 7473 l-3 -167 -122 -40 -123 -40 0 -108 0 -108 124 0 125 0 3
-427 c4 -470 6 -481 67 -573 95 -142 343 -187 665 -120 l56 11 0 161 0 160
-22 -6 c-13 -3 -65 -14 -116 -23 -133 -24 -200 -4 -238 69 -11 22 -14 98 -14
388 l0 360 200 0 200 0 0 150 0 150 -200 0 -200 0 -2 163 -3 162 -197 3 -198
2 -2 -167z"/>
<path d="M14555 7335 c-103 -16 -222 -48 -307 -80 -64 -25 -66 -27 -58 -53 19
-67 83 -267 85 -270 2 -2 41 10 86 26 97 34 212 59 319 68 193 16 300 -58 300
-208 l0 -58 -172 0 c-274 0 -436 -34 -553 -115 -57 -39 -91 -82 -127 -160 -20
-44 -23 -65 -22 -180 0 -146 10 -184 70 -272 42 -61 131 -125 208 -149 81 -25
233 -30 319 -9 81 19 209 76 277 124 l45 31 15 -22 c33 -50 75 -90 114 -111
36 -20 56 -22 176 -22 74 0 148 3 163 8 l28 8 -3 132 -3 132 -70 5 -70 5 -6
375 c-6 406 -9 430 -67 548 -59 122 -192 214 -354 247 -92 18 -280 18 -393 0z
m425 -950 l0 -125 -51 -25 c-71 -36 -190 -65 -268 -65 -104 0 -162 40 -181
126 -21 90 33 160 144 188 86 22 96 23 234 25 l122 1 0 -125z"/>
<path d="M17125 7337 c-87 -29 -160 -83 -216 -161 -19 -26 -30 -34 -34 -25 -3
8 -15 46 -28 84 l-24 70 -161 3 -162 2 0 -705 0 -705 200 0 200 0 0 495 0 495
50 39 c83 66 146 84 281 84 l116 -1 16 161 c9 88 15 163 12 165 -12 13 -212
11 -250 -1z"/>
<path d="M17995 7334 c-270 -59 -467 -280 -515 -576 -16 -97 -8 -299 15 -388
9 -36 35 -103 57 -150 33 -68 57 -101 122 -166 129 -129 258 -181 473 -191
133 -6 271 7 393 38 81 20 220 70 220 79 0 10 -88 271 -92 275 -3 3 -31 -4
-64 -15 -174 -60 -410 -81 -518 -46 -108 36 -193 138 -212 255 l-7 41 471 0
470 0 8 68 c14 115 9 291 -9 362 -53 201 -184 335 -392 400 -94 30 -317 37
-420 14z m250 -275 c141 -26 208 -103 222 -254 l6 -65 -303 0 -303 0 7 47 c18
137 116 248 239 273 60 11 67 11 132 -1z"/>
<path d="M19440 7334 c-133 -28 -227 -78 -297 -158 -52 -59 -78 -115 -93 -197
-24 -129 10 -254 92 -344 69 -76 168 -122 368 -170 185 -46 228 -62 263 -105
55 -65 19 -161 -71 -188 -108 -33 -310 -6 -485 64 -49 20 -90 34 -92 32 -13
-13 -113 -274 -107 -279 17 -17 185 -79 272 -100 128 -31 427 -34 530 -5 151
42 266 129 323 246 31 62 32 70 32 185 0 112 -2 124 -29 180 -64 129 -168 193
-426 260 -196 51 -252 73 -275 109 -21 32 -22 89 -1 121 32 49 62 60 177 63
116 4 213 -11 348 -53 41 -13 76 -23 77 -22 12 18 102 272 98 278 -9 16 -198
70 -293 84 -119 18 -325 18 -411 -1z"/>
<path d="M10640 6605 l0 -705 195 0 195 0 0 705 0 705 -195 0 -195 0 0 -705z"/>
<path d="M12250 6605 l0 -705 195 0 195 0 0 705 0 705 -195 0 -195 0 0 -705z"/>
<path d="M15770 6605 l0 -705 200 0 200 0 0 705 0 705 -200 0 -200 0 0 -705z"/>
</g>
</svg>
